<?xml version="1.0" encoding="utf-8"?>
<svg xmlns="http://www.w3.org/2000/svg" viewBox="0 0 24 24" width="24px" height="24px">
  <path fill="#4285F4" d="M 21.429 0 L 2.571 0 C 1.149 0 0 1.149 0 2.571 L 0 21.429 C 0 22.851 1.149 24 2.571 24 L 21.429 24 C 22.851 24 24 22.851 24 21.429 L 24 2.571 C 24 1.149 22.851 0 21.429 0 Z M 15.429 18.857 L 5.143 18.857 L 5.143 16.286 L 15.429 16.286 L 15.429 18.857 Z M 18.857 13.286 L 5.143 13.286 L 5.143 10.714 L 18.857 10.714 L 18.857 13.286 Z M 18.857 7.714 L 5.143 7.714 L 5.143 5.143 L 18.857 5.143 L 18.857 7.714 Z" style="stroke-width: 1;"/>
</svg>