<?xml version="1.0" encoding="utf-8"?>
<svg xmlns="http://www.w3.org/2000/svg" viewBox="0 0 24 24" width="24px" height="24px">
  <path fill="#E94235" d="M 21.429 0 L 2.571 0 C 1.149 0 0 1.149 0 2.571 L 0 21.429 C 0 22.851 1.149 24 2.571 24 L 21.429 24 C 22.851 24 24 22.851 24 21.429 L 24 2.571 C 24 1.149 22.851 0 21.429 0 Z M 19.714 19.714 L 12 19.714 L 12 12.617 C 11.177 13.286 10.149 13.714 9 13.714 C 6.394 13.714 4.286 11.606 4.286 9 C 4.286 6.394 6.394 4.286 9 4.286 C 11.606 4.286 13.714 6.394 13.714 9 C 13.714 10.149 13.286 11.177 12.617 12 L 19.714 12 L 19.714 19.714 Z" style="stroke-width: 1;"/>
</svg>