<?xml version="1.0" encoding="utf-8"?>
<svg xmlns="http://www.w3.org/2000/svg" viewBox="0 0 24 24" width="24px" height="24px">
  <path fill="#8430CE" fill-rule="nonzero" d="M 21.333 0 L 2.667 0 C 1.2 0 0 1.2 0 2.667 L 0 21.333 C 0 22.8 1.2 24 2.667 24 L 21.333 24 C 22.8 24 24 22.8 24 21.333 L 24 2.667 C 24 1.2 22.8 0 21.333 0 Z M 8 18.667 L 5.333 18.667 L 5.333 16 L 8 16 L 8 18.667 Z M 8 13.333 L 5.333 13.333 L 5.333 10.667 L 8 10.667 L 8 13.333 Z M 8 8 L 5.333 8 L 5.333 5.333 L 8 5.333 L 8 8 Z M 18.667 18.667 L 9.333 18.667 L 9.333 16 L 18.667 16 L 18.667 18.667 Z M 18.667 13.333 L 9.333 13.333 L 9.333 10.667 L 18.667 10.667 L 18.667 13.333 Z M 18.667 8 L 9.333 8 L 9.333 5.333 L 18.667 5.333 L 18.667 8 Z" style="stroke-width: 1;"/>
</svg>