<?xml version="1.0" encoding="utf-8"?>
<svg xmlns="http://www.w3.org/2000/svg" viewBox="0 0 24 24" width="24px" height="24px">
  <path fill="#0F9D58" d="M 21.429 0 L 2.571 0 C 1.149 0 0 1.149 0 2.571 L 0 21.429 C 0 22.851 1.149 24 2.571 24 L 21.429 24 C 22.851 24 24 22.851 24 21.429 L 24 2.571 C 24 1.149 22.851 0 21.429 0 Z M 21.429 10.714 L 10.714 10.714 L 10.714 21.429 L 8.143 21.429 L 8.143 10.714 L 2.571 10.714 L 2.571 8.143 L 8.143 8.143 L 8.143 2.571 L 10.714 2.571 L 10.714 8.143 L 21.429 8.143 L 21.429 10.714 Z" style="stroke-width: 1;"/>
</svg>